<?xml version="1.0" encoding="utf-8"?>
<!-- Generator: Adobe Illustrator 18.1.0, SVG Export Plug-In . SVG Version: 6.00 Build 0)  -->
<!DOCTYPE svg PUBLIC "-//W3C//DTD SVG 1.1//EN" "http://www.w3.org/Graphics/SVG/1.1/DTD/svg11.dtd">
<svg version="1.1" id="Layer_1" xmlns="http://www.w3.org/2000/svg" xmlns:xlink="http://www.w3.org/1999/xlink" x="0px" y="0px"
	 viewBox="57.5 190 476.7 414" enable-background="new 57.5 190 476.7 414" xml:space="preserve">
<g>
	<path fill="#BAB4B1" d="M319.7,334c-0.4,0-0.8,0-1.2-0.1c-6.8-1.7-10.4-18.8-10.4-23.2c0-4.7,4.4-15.7,10.3-15.7
		c0.2,0,0.5,0,0.7,0.1c7.4,1.1,12.4,20.6,11.9,26.2C330.7,325.9,324.9,334,319.7,334C319.7,334,319.7,334,319.7,334z"/>
	<path fill="#423426" d="M318.5,297.5c0.1,0,0.2,0,0.3,0c5.2,0.8,10.3,17.9,9.8,23.5c-0.3,3.6-5.3,10.6-8.9,10.6
		c-0.2,0-0.4,0-0.6-0.1c-4.5-1.1-8.5-15.9-8.5-20.8C310.7,306.6,314.7,297.5,318.5,297.5 M318.5,292.5c-7.9,0-12.7,12.6-12.8,18.2
		c0,3.2,1.1,8.6,2.8,13.5c2.6,7.3,5.6,11.2,9.4,12.2c0.6,0.1,1.2,0.2,1.8,0.2c7.2,0,13.4-9.9,13.9-15.1c0.4-4.1-1.3-10.8-3.1-15.7
		c-3-8.2-6.6-12.5-11-13.2C319.2,292.5,318.8,292.5,318.5,292.5L318.5,292.5z"/>
</g>
<g>
	<path fill="#BAB4B1" d="M325.9,363.6c-0.9,0-1.6-0.2-2.3-0.6c-5.5-2.9-4.9-18.5-3.9-22.3c1-3.9,6.5-11.4,11.3-11.4
		c0.6,0,1.2,0.1,1.8,0.4c6.3,2.7,6.3,20.3,4.6,25.1C336,358.6,330.1,363.6,325.9,363.6L325.9,363.6z"/>
	<path fill="#423426" d="M331,331.8c0.3,0,0.6,0.1,0.8,0.2c4.2,1.8,4.9,17.4,3.2,22c-1,2.8-6,7.1-9.1,7.1c-0.4,0-0.8-0.1-1.2-0.3
		c-3.5-1.9-3.8-15.3-2.7-19.4C322.9,338.1,327.7,331.8,331,331.8 M331,326.8c-6.8,0-12.7,9.3-13.7,13.3c-0.9,3.3-2.4,21,5.1,25.1
		c1.1,0.6,2.3,0.9,3.5,0.9c5.4,0,12.1-5.7,13.8-10.4c1.3-3.7,1.3-10,0.8-14.2c-0.8-7.8-3-12.4-6.8-14
		C332.9,327,331.9,326.8,331,326.8L331,326.8z"/>
</g>
<g>
	<g>
		<path fill="#423426" d="M510.1,310.1c-7.2-8.9-16.4-17.4-28.1-19.1c-12.4-2-25.5,5.4-30.4,16.9c-2.5,5.9-1.9,13.5,3.5,17.6
			c4.1,4.1,10.3,4.2,15.6,3.3c-3.3-1-6.8-2.8-7.5-6.5c-1.1-4.4,2.6-9,7.1-9.3c7.2-0.4,13.8,5.9,14.1,13c0.3,7.7-4.2,15.4-11.1,18.8
			c-5.2,2.6-11,3.5-16.7,4.1c-10.9,1-21.9,0.8-32.9,1.5c-9.5,0.6-19,1.8-28.2,4.4c2.3,1.5,4.2,3,5.2,4.3c2.6,3.3,5.4,13.4,2,15.4
			c-4.5,2.6-18.1-5-21.2-9.7c-0.6-0.9-1.1-2.4-1.4-4c-1.4,0.7-2.9,1.5-4.3,2.4c-0.1,0.3-0.2,0.6-0.4,0.8c-0.8,1.1-2.3,1.8-4.4,2.3
			c-9.5,6.8-17.4,16-22.2,26.7c-5.6,12.1-6,25.9-3,38.8c-7-1.6-14.2-2.4-21.4-1.6c-12.1,1.1-23.3,6.6-32.5,14.4
			c-1.6,1.4-3.2,2.8-4.7,4.3c-2.6,2.6-5,5.4-7.1,8.4c-6.5,9.2-10.7,20.1-12.9,31.2c-3.6,17.6-2.8,35.7-4.2,53.5
			c-0.8,8.4-2.4,17.8-9.3,23.6c-4.6,3.7-11.1,5.9-16.9,4.2c-5.5-1.7-9.7-7.1-9.8-12.9c0-4.7,4.6-8.8,9.3-7.7
			c3.6,0.7,5.6,4.2,6.4,7.5c0.7-4.1,0.8-8.4-0.9-12.3c-2.2-4-5.9-7.4-10.6-8.1c-5.9-0.8-11.9,1.6-16.2,5.6
			c-7,5.9-11.1,15.1-10.3,24.2c0.8,9.7,6.5,18.4,13.5,24.9c6.9,7.4,16.5,12.4,26.6,13.2c11.9,0.9,23.6-3.6,33.4-10.1
			c17.5-11.6,30.2-29.3,38.6-48.3c7.3-16.8,12.5-34.5,19.4-51.5c2.1-5.3,4.4-10.4,7-15.5c0.3-0.6,0.6-1.2,1-1.8
			c3-7,7.3-13.4,12.1-19.3c4.1-4.7,8.7-8.9,13-13.3c6.2-5.5,13.5-10.3,21.1-13.6c9.9-5.2,20.3-9.3,30.8-13.1
			c-1.1-5.1-1.3-11-0.3-13.8c1.3-3.7,8.5-9.6,11.7-7.9c3.2,1.7,4.9,10.1,4.8,15.9c7-2.5,13.9-5.1,20.7-8
			c13.4-5.7,25.9-13.6,36.5-23.6c10.8-10.6,20.1-23.8,22.7-39C519.6,330.1,516.7,318.8,510.1,310.1z M384.2,397.5
			c-4.6,0.6-13.2-9.2-14.9-13.8c-1.5-3.9-0.9-14.4,2.9-15.2c5.1-1.1,15.6,10.5,17.1,15.8C390.4,388,387.8,397,384.2,397.5z
			 M411.3,420.8c-4.6,0.7-13.5-8.8-15.4-13.3c-1.6-3.9-1.4-14.3,2.4-15.3c5.1-1.3,16,10,17.6,15.3
			C417.2,411.1,415,420.2,411.3,420.8z M422,396.7c-5.2,0.5-14.3-12.3-15.1-17.8c-0.6-3.8,3-12.4,6.7-12.5c4.6,0,12,10.7,13.2,15.5
			C427.7,386.1,425.9,396.4,422,396.7z"/>
	</g>
</g>
<g>
	<g>
		<path fill="#423426" d="M409.5,209.5c-7.2-8.9-16.4-17.4-28.1-19.1c-12.4-2-25.5,5.4-30.4,16.9c-2.5,5.9-1.9,13.5,3.5,17.6
			c4.1,4.1,10.3,4.2,15.6,3.3c-3.3-1-6.8-2.8-7.5-6.5c-1.1-4.4,2.6-9,7.1-9.3c7.2-0.4,13.8,5.9,14.1,13c0.3,7.7-4.2,15.4-11.1,18.8
			c-5.2,2.6-11,3.5-16.7,4.1c-10.9,1-21.9,0.8-32.9,1.5c-14,0.9-28.1,3.1-40.9,9.1c-8.3,3.9-16,9.4-22.2,16.1
			c-2.8,3-5.2,6.2-7.4,9.6c-1.6,2.5-3,5.1-4.2,7.7c-5.6,12.1-6,25.9-3,38.8c-7-1.6-14.2-2.4-21.4-1.6c-11.4,1-22.1,6-31,13.1
			c5,3.2,10.6,9.6,11.8,13.3c1.2,3.7-0.9,12.8-4.6,13.4c-4.6,0.8-13.6-8.6-15.5-13.2c-0.5-1.1-0.8-2.8-0.9-4.7
			c-8.9,10.2-14.3,23.1-17,36.3c-3.7,17.6-2.8,35.7-4.2,53.5c-0.8,8.4-2.4,17.8-9.3,23.6c-4.6,3.7-11.1,5.9-16.9,4.2
			c-5.5-1.7-9.7-7.1-9.8-12.9c0-4.7,4.6-8.8,9.3-7.7c3.6,0.7,5.6,4.2,6.4,7.5c0.7-4.1,0.8-8.4-0.9-12.3c-2.2-4-5.9-7.4-10.6-8.1
			c-5.9-0.8-11.9,1.6-16.2,5.6c-7,5.9-11.1,15.1-10.3,24.2c0.8,9.7,6.5,18.4,13.5,24.9c6.9,7.4,16.5,12.4,26.6,13.2
			c11.9,0.9,23.6-3.6,33.4-10.1c17.5-11.6,30.2-29.3,38.6-48.3c5.2-12,9.3-24.3,13.8-36.6c-2.7-2.7-5-6.6-3.9-8.8
			c1-2,4.7-3.5,8.8-4.2c2.6-6.5,5.5-13,8.7-19.2c3-7,7.3-13.4,12.1-19.3c4.1-4.7,8.7-8.9,13-13.3c6.2-5.5,13.5-10.3,21.1-13.6
			c5.7-3,11.5-5.6,17.4-8c2.4-1,4.8-1.9,7.3-2.9c14.3-5.4,29-10.1,43.1-16.1c13.4-5.7,25.9-13.6,36.5-23.6
			c10.8-10.6,20.1-23.8,22.7-39C418.9,229.5,416.1,218.1,409.5,209.5z M189,395.3c-5.1,0.9-15.3-11-16.6-16.4
			c-0.9-3.8,1.9-12.7,5.6-13c4.6-0.4,12.9,9.7,14.4,14.3C193.8,384.2,192.9,394.7,189,395.3z M219.8,410.6
			c-4.7,2.4-17.8-6.1-20.6-10.9c-2-3.3-1.8-12.7,1.6-14c4.3-1.7,15.1,5.5,17.9,9.5C221.1,398.6,223.2,408.9,219.8,410.6z M224.1,392
			c-4.6,0.3-12.6-10.1-14-14.8c-1.2-4,0.1-14.4,3.9-15c5.2-0.8,14.9,11.5,16,16.9C230.9,383,227.8,391.8,224.1,392z"/>
	</g>
</g>
<g>
	<path fill="#BAB4B1" d="M523.9,517.8c-6,0-15.3-9.4-17.5-14.2c-1.6-3.6-2.1-11.3-0.2-15.4c1-2.2,2.5-3.1,3.5-3.4
		c0.5-0.2,1.1-0.2,1.7-0.2c6.7,0,17.6,10.6,19.6,16.3c1.2,3.3,0.4,9.5-1.7,13.2c-1.4,2.5-3.1,3.3-4.3,3.6
		C524.7,517.8,524.3,517.8,523.9,517.8C523.9,517.8,523.9,517.8,523.9,517.8z"/>
	<path fill="#423426" d="M511.4,487.1c5.4,0,15.5,9.8,17.2,14.7c1.3,3.6-0.5,12.8-4.1,13.5c-0.2,0-0.4,0.1-0.7,0.1
		c-4.7,0-13.3-8.5-15.3-12.7c-1.7-3.8-2-14.3,1.8-15.4C510.7,487.2,511.1,487.1,511.4,487.1 M511.4,482.1c-0.8,0-1.6,0.1-2.4,0.3
		c-1.6,0.5-3.7,1.6-5.1,4.7c-2.2,4.9-1.8,13.3,0.2,17.5c2.1,4.7,12.1,15.6,19.8,15.6c0.6,0,1.1-0.1,1.7-0.2c1.7-0.3,4.1-1.4,6-4.8
		c2.5-4.4,3.3-11.3,1.8-15.3C531.3,494.2,519.8,482.1,511.4,482.1L511.4,482.1z"/>
</g>
<g>
	<path fill="#BAB4B1" d="M79.4,276c-6,0-15.5-9.1-17.7-13.7c-1.7-3.6-2.4-11.2-0.6-15.4c1-2.2,2.4-3.1,3.4-3.5
		c0.6-0.2,1.2-0.3,1.9-0.3c6.6,0,17.7,10.2,19.9,15.7c1.3,3.3,0.7,9.5-1.3,13.3c-1.3,2.6-3,3.4-4.2,3.7C80.3,276,79.9,276,79.4,276z
		"/>
	<path fill="#423426" d="M66.4,245.7c5.4,0,15.7,9.4,17.5,14.2c1.4,3.6-0.2,12.8-3.7,13.6c-0.2,0.1-0.5,0.1-0.8,0.1
		c-4.7,0-13.5-8.1-15.5-12.3c-1.8-3.8-2.4-14.2,1.3-15.4C65.6,245.7,66,245.7,66.4,245.7 M66.4,240.7c-0.9,0-1.8,0.1-2.7,0.4
		c-1.6,0.5-3.7,1.8-5,4.9c-2.1,4.9-1.4,13.3,0.7,17.5c2.3,4.6,12.2,15.1,20,15.1c0.7,0,1.3-0.1,1.9-0.2c1.7-0.4,4.1-1.6,5.9-5
		c2.3-4.5,3-11.3,1.4-15.3c-1.9-4.7-7.3-9.5-8.9-10.9C76.2,244.2,71.1,240.7,66.4,240.7L66.4,240.7z"/>
</g>
<g>
	<path fill="#BAB4B1" d="M105.2,295.4c-6,0-15.5-9-17.7-13.7c-1.7-3.5-2.4-11.2-0.6-15.4c1-2.3,2.4-3.1,3.4-3.5
		c0.4-0.1,0.9-0.2,1.4-0.2c4.7,0,16.9,6.8,20.4,15.7c1.3,3.3,0.7,9.5-1.3,13.3c-1.4,2.6-3,3.4-4.2,3.7
		C106.2,295.4,105.7,295.4,105.2,295.4L105.2,295.4z"/>
	<path fill="#423426" d="M91.7,265.1c3.8,0,14.9,6.1,18,14.1c1.4,3.6-0.2,12.8-3.7,13.6c-0.2,0.1-0.5,0.1-0.8,0.1
		c-4.7,0-13.4-8.1-15.5-12.3c-1.9-3.8-2.4-14.2,1.3-15.4C91.3,265.1,91.5,265.1,91.7,265.1 M91.7,260.1c-0.8,0-1.5,0.1-2.2,0.3
		c-1.6,0.5-3.7,1.8-5,4.9c-2.1,5-1.3,13.3,0.7,17.5c2.3,4.6,12.2,15.1,20,15.1c0.7,0,1.3-0.1,1.9-0.2c1.7-0.4,4.1-1.6,5.8-5
		c2.3-4.4,3-11.3,1.4-15.3C110.4,267.2,97.3,260.1,91.7,260.1L91.7,260.1z"/>
</g>
<g>
	<path fill="#BAB4B1" d="M131.1,314.7c-6,0-15.5-9-17.8-13.7c-1.7-3.5-2.4-11.2-0.6-15.4c1-2.3,2.4-3.1,3.4-3.5
		c0.6-0.2,1.2-0.3,1.9-0.3c6.6,0,17.7,10.2,19.9,15.7c1.3,3.3,0.7,9.5-1.3,13.3c-1.3,2.6-3,3.4-4.2,3.7
		C132.1,314.7,131.6,314.7,131.1,314.7z"/>
	<path fill="#423426" d="M118.1,284.4c5.4,0,15.6,9.3,17.5,14.1c1.4,3.6-0.1,12.8-3.7,13.6c-0.2,0.1-0.5,0.1-0.8,0.1
		c-4.8,0-13.5-8.1-15.5-12.3c-1.9-3.8-2.4-14.2,1.3-15.4C117.3,284.5,117.7,284.4,118.1,284.4 M118.1,279.4c-1,0-1.9,0.1-2.7,0.4
		c-1.5,0.5-3.6,1.7-4.9,4.9c-2.1,5-1.4,13.3,0.7,17.5c2.3,4.6,12.2,15.1,20,15.1c0.7,0,1.3-0.1,1.9-0.2c1.7-0.4,4.1-1.6,5.9-5
		c2.3-4.5,3-11.3,1.4-15.3c-1.8-4.7-7.3-9.5-8.9-10.8C128,282.9,122.8,279.4,118.1,279.4L118.1,279.4z"/>
</g>
<g>
	<path fill="#BAB4B1" d="M157,334c-6,0-15.5-9-17.8-13.6c-1.8-3.6-2.4-11.2-0.7-15.5c0.9-2.3,2.4-3.1,3.4-3.5
		c0.6-0.2,1.2-0.3,1.9-0.3c6.6,0,17.7,10.2,19.9,15.7c1.3,3.3,0.7,9.5-1.3,13.3c-1.3,2.6-3,3.5-4.2,3.7C158,334,157.5,334,157,334
		C157,334,157,334,157,334z"/>
	<path fill="#423426" d="M144,303.7c5.4,0,15.7,9.3,17.6,14.1c1.4,3.6-0.1,12.8-3.7,13.6c-0.2,0.1-0.5,0.1-0.8,0.1
		c-4.7,0-13.5-8.1-15.5-12.2c-1.9-3.8-2.4-14.2,1.3-15.4C143.2,303.8,143.6,303.7,144,303.7 M144,298.7c-1,0-1.9,0.1-2.7,0.4
		c-1.5,0.5-3.6,1.8-4.9,4.9c-2.1,5-1.3,13.3,0.7,17.5c2.3,4.6,12.2,15,20,15c0.7,0,1.3-0.1,1.9-0.2c1.7-0.4,4.1-1.6,5.9-5
		c2.3-4.5,2.9-11.3,1.4-15.3c-1.9-4.7-7.3-9.5-8.9-10.8C153.8,302.2,148.7,298.7,144,298.7L144,298.7z"/>
</g>
<g>
	<path fill="#BAB4B1" d="M199.7,371.7c-6.6,0-18-13.8-19.8-18.2c-0.7-1.7-1-3.9-1.1-5.5c-0.1-2-0.5-11.8,5.1-13.2
		c0.5-0.1,1-0.2,1.5-0.2c1.9,0,4,0.8,6.5,2.4c5.1,3.3,13.8,13.5,15.2,18c1.1,3.4,0.1,9.5-2.1,13.2c-1.5,2.5-3.2,3.3-4.4,3.5
		C200.3,371.7,200,371.7,199.7,371.7C199.7,371.7,199.7,371.7,199.7,371.7z"/>
	<path fill="#423426" d="M185.4,337.1c1.5,0,3.3,0.8,5.1,2c5,3.2,13,13,14.2,16.7c1.2,3.7-0.9,12.8-4.6,13.4c-0.1,0-0.3,0-0.4,0
		c-4.8,0-15.7-12.2-17.5-16.6c-0.5-1.1-0.8-2.8-0.9-4.7c-0.3-4.5,0.5-10,3.2-10.6C184.8,337.2,185.1,337.1,185.4,337.1 M185.4,332.1
		c-0.7,0-1.4,0.1-2.1,0.3c-7.3,1.9-7.2,12.6-6.9,15.8c0.1,1.7,0.4,4.2,1.3,6.3c2,4.8,14,19.7,22.1,19.7c0.4,0,0.8,0,1.2-0.1
		c1.7-0.3,4.2-1.3,6.2-4.6c2.6-4.3,3.7-11.2,2.3-15.2c-1.6-5-10.6-15.7-16.3-19.3C190.3,333,187.7,332.1,185.4,332.1L185.4,332.1z"
		/>
</g>
<g>
	<path fill="#BAB4B1" d="M224.1,393c-6.4,0-15.4-10.4-17.2-14.9c-1.5-3.7-1.6-11.4,0.4-15.4c1.1-2.2,2.6-3,3.7-3.2
		c0.5-0.1,0.9-0.2,1.5-0.2c6.9,0,17.5,11.7,19.2,17.1c1.1,3.4,0,9.5-2.2,13.1c-1.5,2.5-3.3,3.2-4.5,3.4
		C224.7,393,224.4,393,224.1,393L224.1,393z"/>
	<path fill="#423426" d="M212.4,361.9c5.3,0,15.2,10.3,16.8,15.3c1.2,3.7-1,12.8-4.7,13.3c-0.2,0-0.3,0-0.5,0
		c-4.7,0-13.1-9-14.9-13.3c-1.6-3.9-1.4-14.3,2.4-15.3C211.9,361.9,212.1,361.9,212.4,361.9 M212.4,356.9c-0.7,0-1.4,0.1-2.1,0.3
		c-1.6,0.4-3.7,1.5-5.3,4.5c-2.4,4.8-2.3,13.2-0.5,17.5c2,4.9,11.7,16.4,19.5,16.4c0.4,0,0.9,0,1.3-0.1c1.7-0.3,4.2-1.3,6.2-4.6
		c2.6-4.3,3.7-11.1,2.4-15.2C232.1,369.5,220.9,356.9,212.4,356.9L212.4,356.9z"/>
</g>
<g>
	<path fill="#BAB4B1" d="M271.7,452.8c-6.2,0-15.6-8.6-18-12.9c-1.9-3.5-2.9-11.1-1.3-15.4c0.9-2.3,2.3-3.2,3.3-3.6
		c0.7-0.2,1.4-0.4,2.2-0.4c6.8,0,17.8,9.6,20.2,14.9c1.4,3.2,1.1,9.4-0.7,13.3c-1.2,2.6-2.9,3.6-4.1,3.9
		C272.8,452.8,272.3,452.8,271.7,452.8C271.7,452.8,271.7,452.8,271.7,452.8z"/>
	<path fill="#423426" d="M257.9,423.1c5.5,0,15.8,8.7,17.9,13.4c1.6,3.5,0.4,12.8-3.2,13.8c-0.3,0.1-0.6,0.1-1,0.1
		c-4.8,0-13.6-7.6-15.8-11.6c-2-3.7-3-14.1,0.7-15.5C257,423.1,257.4,423.1,257.9,423.1 M257.9,418.1c-1.1,0-2.1,0.2-3.1,0.5
		c-1.5,0.6-3.6,1.9-4.8,5.1c-1.9,5-0.8,13.4,1.4,17.5c2.7,5,12.9,14.2,20.2,14.2c0.8,0,1.6-0.1,2.3-0.3c1.7-0.5,4-1.7,5.6-5.2
		c2.2-4.6,2.5-11.5,0.8-15.4C277.7,428.3,265.8,418.1,257.9,418.1L257.9,418.1z"/>
</g>
<g>
	<path fill="#BAB4B1" d="M249.5,433.9c-6.8,0-18-8.6-20.6-13.6c-1.6-3.1-1.7-9.3-0.1-13.3c1.1-2.7,2.7-3.8,3.8-4.1
		c0.6-0.2,1.3-0.3,2.1-0.3c5.8,0,15.5,7.3,18.3,11.8c2.1,3.3,3.6,10.9,2.2,15.3c-0.7,2.4-2.1,3.4-3.1,3.8
		C251.4,433.7,250.5,433.9,249.5,433.9L249.5,433.9z"/>
	<path fill="#423426" d="M234.7,405c4.9,0,13.8,6.8,16.2,10.6c2.3,3.6,3.8,13.9,0.3,15.5c-0.5,0.2-1,0.3-1.7,0.3
		c-5.6,0-16.1-7.8-18.4-12.3c-1.8-3.4-1.2-12.7,2.3-13.9C233.8,405,234.2,405,234.7,405 M234.7,400c-1,0-2,0.2-2.9,0.5
		c-1.6,0.6-3.9,2-5.3,5.6c-1.9,4.7-1.8,11.6,0.2,15.4c2.9,5.6,14.8,15,22.8,15c1.4,0,2.6-0.3,3.7-0.8c1.5-0.7,3.4-2.1,4.4-5.4
		c1.6-5.2-0.1-13.4-2.5-17.3C252.3,408.4,241.9,400,234.7,400L234.7,400z"/>
</g>
<g>
	<path fill="#BAB4B1" d="M276.8,460.9c-0.8-1.6-1.3-3-1.5-4.2c-0.8-3.9,0.4-11.5,3.2-15.1c1.5-2,3.1-2.5,4.2-2.5c0.1,0,0.2,0,0.4,0
		c2.9,0,6.2,2.2,9.7,6.5l1.6,1.9l-1.9,1.6c-1.6,1.3-3.1,2.7-4.5,4.1c-2.4,2.4-4.7,5.1-6.8,8.1l-2.4,3.5L276.8,460.9z"/>
	<path fill="#423426" d="M283,441.6c2.3,0,5.2,2.4,7.8,5.6c-1.6,1.4-3.2,2.8-4.7,4.3c-2.6,2.6-5,5.4-7.1,8.4
		c-0.7-1.4-1.1-2.6-1.4-3.6c-0.9-4.1,1.2-14.4,5.1-14.6C282.8,441.6,282.9,441.6,283,441.6 M283,436.6c-0.2,0-0.4,0-0.5,0
		c-1.6,0.1-4,0.8-6,3.5c-3.3,4.3-4.6,12.6-3.6,17.1c0.3,1.4,0.9,3,1.7,4.8l3.7,7.6l4.9-6.9c2-2.8,4.2-5.4,6.5-7.7
		c1.4-1.4,2.9-2.8,4.4-4l3.8-3.2l-3.1-3.8C290.6,439,286.7,436.6,283,436.6L283,436.6z"/>
</g>
<g>
	<path fill="#BAB4B1" d="M349.6,499.3c-4.3,0-10.1-1.2-14-3l-2.2-1l0.9-2.2c2.4-5.8,4.7-11,7.1-15.7l0.9-1.8l1.9,0.5
		c2.2,0.6,6.3,1.8,8.7,3.7c2.8,2.2,5.4,7.8,5.6,12.1c0.1,2.9-0.9,4.5-1.7,5.4C355.3,498.5,352.9,499.3,349.6,499.3
		C349.6,499.3,349.6,499.3,349.6,499.3z"/>
	<path fill="#423426" d="M343.6,478.5c3.3,0.8,6.2,2,7.8,3.2c3.1,2.4,6.3,11.1,3.7,13.6c-1.1,1-3.1,1.4-5.5,1.4
		c-4.3,0-9.7-1.3-13-2.8C338.7,488.7,341,483.5,343.6,478.5 M341,472.6l-1.8,3.6c-2.4,4.8-4.8,10-7.2,15.9l-1.8,4.5l4.4,2
		c4.2,1.9,10.4,3.2,15.1,3.2c4,0,7-0.9,8.9-2.8c1.3-1.2,2.7-3.4,2.5-7.3c-0.2-5-3.2-11.3-6.6-13.9c-2.8-2.2-7.2-3.5-9.6-4.1
		L341,472.6L341,472.6z"/>
</g>
<g>
	<path fill="#BAB4B1" d="M371.2,493.9c-4.1,0-11.1-2.7-14.1-6.1c-1.6-1.8-1.8-3.5-1.6-4.5c0.9-7.1,16.9-13.1,22.6-13.1
		c0.2,0,0.5,0,0.7,0c3.6,0.3,8.9,3.5,11.4,6.9c1.7,2.3,1.8,4.2,1.6,5.4c-1.4,6.3-15.2,11.4-20.4,11.5L371.2,493.9z"/>
	<path fill="#423426" d="M378,472.6c0.2,0,0.3,0,0.5,0c3.9,0.3,11.5,5.6,10.7,9.2c-1,4.5-13.1,9.4-18,9.5c0,0-0.1,0-0.1,0
		c-4.3,0-13.8-4-13.3-7.8C358.5,478.5,372.1,472.6,378,472.6 M378,467.6c-4.4,0-10.3,2.1-14.3,4.1c-6.7,3.3-10.3,7.1-10.8,11.2
		c-0.2,1.6,0,4,2.2,6.5c3.5,4,11.3,6.9,16,6.9l0.2,0c5-0.1,21-5,22.8-13.4c0.4-1.7,0.3-4.3-2-7.4c-3-4-9-7.5-13.2-7.8
		C378.6,467.7,378.3,467.6,378,467.6L378,467.6z"/>
</g>
<g>
	<path fill="#BAB4B1" d="M392.3,478.5c-2.5,0-10.7-0.4-11.9-5.5c-1.6-7.2,11.9-18.7,17.3-20.3c0.8-0.2,1.8-0.4,2.9-0.4
		c4.4,0,12.8,2.2,13.5,7.4c0.9,6.4-10.3,15.9-15.2,17.8C397.3,478.1,394.9,478.5,392.3,478.5C392.3,478.5,392.3,478.5,392.3,478.5z"
		/>
	<path fill="#423426" d="M400.6,454.9c4.2,0,10.6,2.2,11,5.2c0.6,4.6-9,13.4-13.6,15.1c-1.4,0.5-3.5,0.8-5.7,0.8
		c-4.3,0-8.9-1-9.5-3.5c-1.2-5.1,10.3-15.8,15.6-17.4C399,454.9,399.7,454.9,400.6,454.9 M400.6,449.9c-1.3,0-2.5,0.2-3.6,0.5
		c-4.2,1.2-9.2,5.3-12.4,8.7c-5.3,5.5-7.6,10.4-6.6,14.6c1.1,4.7,6.3,7.4,14.4,7.4c1.7,0,4.9-0.1,7.5-1.1c4.6-1.8,18-11.9,16.8-20.5
		C415.6,452.2,405.4,449.9,400.6,449.9L400.6,449.9z"/>
</g>
<g>
	<path fill="#BAB4B1" d="M408.5,456.4c-2.9,0-4.4-1.2-5.2-2.2c-4.4-5.9,3.4-21.9,7.7-25.5c2.5-2.1,7.2-3.2,10.7-3.2c3.5,0,6,1,7.2,3
		c3.4,5.5-3.1,18.7-6.8,22.4C419.5,453.4,413.1,456.4,408.5,456.4C408.5,456.4,408.5,456.4,408.5,456.4z"/>
	<path fill="#423426" d="M421.7,428c2.3,0,4.3,0.5,5.1,1.8c2.4,3.9-2.9,15.9-6.4,19.3c-2.2,2.2-8,4.8-11.9,4.8
		c-1.4,0-2.5-0.3-3.2-1.2c-3.1-4.2,3.1-18.6,7.3-22.1C414.4,429.1,418.4,428,421.7,428 M421.7,423c-3.7,0-9.2,1.2-12.3,3.7
		c-5,4.2-13.7,21.5-8.1,29c1.1,1.5,3.2,3.2,7.2,3.2c5.4,0,12.4-3.3,15.4-6.2c3.5-3.5,11.7-18.1,7.1-25.5
		C429.9,425.2,427.3,423,421.7,423L421.7,423z"/>
</g>
<g>
	<path fill="#BAB4B1" d="M365.6,369.3c-4.7,0-11.4-0.9-14.7-3c-2.4-1.5-10.4-8.4-11-13.4c-0.2-1.4,0.3-2.7,1.2-3.7
		c2.7-2.7,6.6-4,11.8-4c6.3,0,12.7,2.1,15.5,3.4c4.1,2.1,11.1,9.8,9.9,15l-0.2,1l-0.9,0.5c-1.5,0.9-3.1,1.9-4.5,3l-0.4,0.3l-0.5,0.1
		C369.9,369.1,367.9,369.3,365.6,369.3C365.6,369.3,365.6,369.3,365.6,369.3z"/>
	<path fill="#423426" d="M352.9,347.8c5.7,0,11.8,1.9,14.4,3.2c3.5,1.7,9.4,8.7,8.6,12.3c-1.6,1-3.2,2-4.7,3.1
		c-1.6,0.4-3.6,0.5-5.6,0.5c-5.2,0-10.9-1.1-13.4-2.6c-3.3-2-11.9-10.5-9.3-13.1C345.3,348.6,349,347.8,352.9,347.8 M352.9,342.8
		c-5.9,0-10.4,1.6-13.6,4.8c-1.5,1.5-2.2,3.5-1.9,5.7c0.7,6.3,9.8,13.7,12.1,15.2c3.8,2.3,10.8,3.4,16,3.4c2.5,0,4.7-0.2,6.6-0.6
		l1-0.2l0.8-0.6c1.4-1,2.9-2,4.4-2.9l1.8-1.1l0.5-2.1c1.6-7.1-7.2-15.8-11.2-17.8C366.5,345,359.6,342.8,352.9,342.8L352.9,342.8z"
		/>
</g>
<g>
	<path fill="#BAB4B1" d="M326.1,378c-0.5,0-1,0-1.5-0.1c-3.5-0.5-8.6-4-11-7.6c-1.6-2.4-1.5-4.3-1.2-5.5
		c1.8-6.1,15.4-10.2,20.5-10.2c0.2,0,0.4,0,0.5,0c3.9,0.2,10.9,3.3,13.8,6.9c1.5,1.9,1.6,3.6,1.4,4.7C347.3,373.4,332,378,326.1,378
		L326.1,378z"/>
	<path fill="#423426" d="M332.9,357.3c0.1,0,0.3,0,0.4,0c4.2,0.2,13.6,4.8,12.9,8.6c-0.9,4.8-13.9,9.7-20.1,9.7
		c-0.4,0-0.8,0-1.2-0.1c-3.8-0.5-11.1-6.3-10.1-9.9C316.1,361.3,327.8,357.3,332.9,357.3 M332.9,352.3c-5.7,0-20.7,4.2-22.9,12
		c-0.5,1.7-0.6,4.3,1.5,7.5c2.8,4.2,8.5,8.1,12.7,8.7c0.6,0.1,1.2,0.1,1.8,0.1c3.8,0,9.2-1.3,14-3.4c6.5-2.9,10.2-6.3,11-10.3
		c0.3-1.6,0.2-4-1.9-6.7c-3.3-4.2-11-7.6-15.7-7.8C333.4,352.3,333.2,352.3,332.9,352.3L332.9,352.3z"/>
</g>
<g>
	<path fill="#BAB4B1" d="M297.1,392.7c-0.2,0-0.3,0-0.5,0c-3.6-0.2-9-3.3-11.6-6.7c-1.8-2.3-1.9-4.2-1.6-5.3
		c1.3-6.4,15-11.7,20.2-11.8l0.3,0c4.1,0,11.1,2.6,14.1,5.9c1.6,1.8,1.8,3.4,1.6,4.5C318.9,386.5,302.9,392.7,297.1,392.7
		L297.1,392.7z"/>
	<path fill="#423426" d="M303.9,371.3c4.3,0,13.7,3.8,13.3,7.6c-0.6,5.1-14.3,11.3-20.1,11.3c-0.1,0-0.2,0-0.4,0
		c-3.9-0.2-11.6-5.4-10.9-9c0.9-4.5,12.9-9.6,17.8-9.8C303.8,371.3,303.8,371.3,303.9,371.3 M303.9,366.3c-0.1,0-0.3,0-0.4,0
		c-5,0.2-20.9,5.3-22.6,13.8c-0.3,1.7-0.2,4.3,2.1,7.4c3.1,4,9.1,7.4,13.4,7.6c0.2,0,0.4,0,0.6,0c4.4,0,10.3-2.2,14.3-4.3
		c6.7-3.5,10.3-7.3,10.8-11.4c0.2-1.6-0.1-3.9-2.3-6.4C316.3,369.1,308.6,366.3,303.9,366.3L303.9,366.3z"/>
</g>
<g>
	<path fill="#BAB4B1" d="M269.1,407.5c-0.9,0-1.7-0.1-2.5-0.2c-3.5-0.7-8.4-4.5-10.5-8.2c-1.5-2.5-1.3-4.4-0.9-5.5
		c2.1-5.9,15.1-9,20.3-9c0.5,0,1,0,1.4,0.1c3.9,0.4,10.8,3.9,13.4,7.7c1.4,2,1.4,3.7,1.1,4.8C289.7,403.4,275.8,407.5,269.1,407.5
		L269.1,407.5z"/>
	<path fill="#423426" d="M275.4,387.1c0.4,0,0.8,0,1.1,0.1c4.2,0.4,13.3,5.6,12.3,9.4c-1.1,4.5-13.4,8.5-19.8,8.5
		c-0.7,0-1.4-0.1-2-0.2c-3.8-0.7-10.7-7-9.5-10.4C259,390.3,270,387.1,275.4,387.1 M275.4,382.1c-5.6,0-20,3.1-22.6,10.7
		c-0.6,1.6-0.8,4.3,1.1,7.6c2.5,4.4,8,8.6,12.2,9.4c0.8,0.2,1.8,0.3,2.9,0.3c6.1,0,22.5-3.6,24.7-12.2c0.4-1.6,0.5-4-1.5-6.8
		c-3.1-4.4-10.5-8.3-15.2-8.8C276.6,382.1,276,382.1,275.4,382.1L275.4,382.1z"/>
</g>
<g>
	<path fill="#BAB4B1" d="M239.5,414.2c-2.4,0-4.4-0.3-5.9-0.8c-2.1-0.7-4.1-2.5-5.1-3.5c-3.3-3.3-6.2-8.1-4.3-11.7
		c1.7-3.2,6.7-4.8,10.6-5.5c2.5-0.5,5.2-0.7,7.5-0.7c1.8,0,3.4,0.2,4.6,0.5c3.8,0.9,10.1,5.4,12.2,9.5c1.1,2.2,0.9,3.9,0.4,4.9
		C257.2,412.2,246,414.2,239.5,414.2C239.5,414.2,239.5,414.2,239.5,414.2z"/>
	<path fill="#423426" d="M242.3,394.5c1.6,0,2.9,0.1,4,0.4c4.1,1,12.4,7.4,10.9,11c-1.5,3.7-11,5.9-17.7,5.9c-2,0-3.8-0.2-5.1-0.6
		c-1.2-0.4-2.7-1.5-4.1-2.9c-2.7-2.7-5-6.6-3.9-8.8c1-2,4.7-3.5,8.8-4.2C237.6,394.8,240.1,394.5,242.3,394.5 M242.3,389.5
		c-2.5,0-5.4,0.3-8,0.8c-6.5,1.2-10.6,3.5-12.3,6.9c-2.4,4.8,0.9,10.7,4.8,14.6c1.4,1.4,3.6,3.3,6,4.1c1.7,0.6,4,0.9,6.7,0.9
		c0.2,0,18.7-0.1,22.3-9c0.6-1.5,1-3.9-0.5-7c-2.4-4.8-9.3-9.6-13.8-10.8C246,389.7,244.3,389.5,242.3,389.5L242.3,389.5z"/>
</g>
<g>
	<path fill="#BAB4B1" d="M217.8,413.5c-6.8,0-18.1-8-20.8-12.6c-1.8-3.1-2.1-9.3-0.8-13.3c0.9-2.7,2.5-3.9,3.6-4.3
		c0.7-0.3,1.5-0.4,2.5-0.4c5.9,0,15.5,6.7,18.5,10.9c2.3,3.2,4.1,10.7,3,15.1c-0.6,2.4-1.9,3.5-2.9,4
		C220,413.3,219,413.5,217.8,413.5C217.8,413.5,217.8,413.5,217.8,413.5z"/>
	<path fill="#423426" d="M202.3,385.4c4.9,0,13.9,6.2,16.4,9.8c2.4,3.4,4.5,13.7,1.1,15.4c-0.6,0.3-1.2,0.4-2,0.4
		c-5.7,0-16.2-7.1-18.6-11.3c-2-3.3-1.8-12.7,1.6-14C201.2,385.5,201.7,385.4,202.3,385.4 M202.3,380.4c-1.2,0-2.4,0.2-3.4,0.6
		c-1.6,0.6-3.7,2.1-5,5.8c-1.6,4.8-1.2,11.7,1,15.4c3.4,5.8,15.6,13.8,22.9,13.8c1.6,0,3-0.3,4.2-0.9c1.5-0.7,3.3-2.3,4.2-5.6
		c1.3-5.2-0.7-13.4-3.4-17.2C219.5,387.6,209.2,380.4,202.3,380.4L202.3,380.4z"/>
</g>
<g>
	<path fill="#BAB4B1" d="M188.4,397.9c-7,0-17-12.6-18.4-18.4c-0.8-3.4,0.6-9.5,3.1-13c1.7-2.4,3.5-3,4.7-3.1c0.2,0,0.3,0,0.5,0
		c6.4,0,15,11.4,16.5,16.1c1.2,3.8,0.8,11.5-1.5,15.4c-1.3,2.1-2.8,2.8-3.9,3C189.1,397.9,188.8,397.9,188.4,397.9
		C188.4,397.9,188.4,397.9,188.4,397.9z"/>
	<path fill="#423426" d="M178.3,365.9c4.6,0,12.7,9.8,14.2,14.3c1.3,4,0.4,14.4-3.5,15.1c-0.2,0-0.4,0-0.6,0
		c-5.3,0-14.7-11.3-16-16.5c-0.9-3.8,1.9-12.7,5.6-13C178.1,365.9,178.2,365.9,178.3,365.9 M178.3,360.9c-0.2,0-0.5,0-0.7,0
		c-1.7,0.2-4.3,1-6.5,4.1c-2.9,4.1-4.5,10.8-3.5,15c1,4,4.6,9,7.6,12.4c3.3,3.6,8.3,7.9,13.2,7.9c0.5,0,1,0,1.5-0.1
		c1.6-0.3,3.8-1.2,5.6-4.1c2.8-4.6,3.2-13,1.8-17.4C195.5,373.4,186.3,360.9,178.3,360.9L178.3,360.9z"/>
</g>
<g>
	<path fill="#BAB4B1" d="M166.8,371.7c-0.5,0-1-0.1-1.5-0.2c-7-2.2-10.1-19.7-8.8-25.2c1-4.1,7.4-11,12.3-11c0.7,0,1.4,0.1,2,0.4
		c6,2.5,8.5,17,7.7,22.1C177.9,361.7,172.5,371.7,166.8,371.7L166.8,371.7z"/>
	<path fill="#423426" d="M168.9,337.7c0.4,0,0.7,0.1,1,0.2c4.3,1.8,7,14.5,6.2,19.4c-0.6,3.9-5.6,11.9-9.3,11.9
		c-0.2,0-0.5,0-0.7-0.1c-5-1.6-8.4-16.8-7.1-22.2C159.8,343.4,165.4,337.7,168.9,337.7 M168.9,332.7c-6.4,0-13.5,7.8-14.8,12.9
		c-1.6,6.3,1.6,25.4,10.4,28.2c0.7,0.2,1.4,0.3,2.2,0.3c7.6,0,13.5-11.4,14.3-16.1c0.8-4.9-1.2-21.5-9.2-24.8
		C170.9,332.9,169.9,332.7,168.9,332.7L168.9,332.7z"/>
</g>
<g>
	<path fill="#BAB4B1" d="M169.9,336.9c-5.3,0-7.3-2-8-3.7c-2.9-6.8,8.3-20.6,13.3-23.1c2-1,4.8-1.2,6.3-1.2c4.6,0,9.9,1.3,11.1,5.1
		c2,6.2-7.2,17.5-11.7,20.3C178.5,335.8,173.9,336.9,169.9,336.9C169.9,336.9,169.9,336.9,169.9,336.9z"/>
	<path fill="#423426" d="M181.5,311.5c3.8,0,8,1.1,8.8,3.4c1.5,4.4-6.4,14.8-10.6,17.3c-2,1.2-6.2,2.3-9.7,2.3
		c-2.7,0-5.1-0.6-5.7-2.2c-2.1-4.8,7.2-17.4,12.2-19.9C177.6,311.8,179.5,311.5,181.5,311.5 M181.5,306.5c-2.1,0-5,0.3-7.4,1.5
		c-3.9,2-8,6.9-10.6,10.8c-4.2,6.4-5.5,11.7-3.9,15.5c1,2.4,3.6,5.2,10.3,5.2c4.4,0,9.5-1.2,12.4-3c4.2-2.6,15.5-15,12.7-23.2
		C192.9,307,184.2,306.5,181.5,306.5L181.5,306.5z"/>
</g>
<g>
	<path fill="#BAB4B1" d="M190.2,308.8c-5.7,0-12.6-1.6-13.3-6.3c-1.2-7.3,13-17.9,18.6-19.2c0.6-0.1,1.3-0.2,2.1-0.2
		c4.6,0,13.5,2.8,13.9,8.2c0.5,6.5-11.3,15.2-16.3,16.8C193.5,308.7,191.5,308.8,190.2,308.8z"/>
	<path fill="#423426" d="M197.5,285.7c4.2,0,11.1,2.7,11.4,5.9c0.4,4.6-9.9,12.8-14.5,14.2c-1.1,0.3-2.5,0.5-4.2,0.5
		c-4.6,0-10.4-1.3-10.8-4.2c-0.8-5.2,11.2-15.1,16.6-16.3C196.4,285.7,196.9,285.7,197.5,285.7 M197.5,280.7c-0.9,0-1.8,0.1-2.6,0.3
		c-6.4,1.4-22,12.9-20.5,22c1,6.2,8.8,8.4,15.8,8.4c1.5,0,3.8-0.1,5.7-0.7c4.7-1.5,18.7-10.8,18-19.4
		C213.3,283.8,202.7,280.7,197.5,280.7L197.5,280.7z"/>
</g>
<g>
	<path fill="#BAB4B1" d="M216.4,288.1c-3.9-0.1-11.1-3.1-14-6.6c-1.6-1.9-1.7-3.6-1.5-4.7c1.2-7,16.5-12.2,22.6-12.2
		c0.4,0,0.8,0,1.2,0.1c3.5,0.4,8.7,3.8,11.1,7.3c1.7,2.4,1.6,4.3,1.3,5.5c-1.6,6.1-15.2,10.6-20.6,10.6
		C216.6,288.2,216.4,288.1,216.4,288.1z"/>
	<path fill="#423426" d="M223.5,267.2c0.3,0,0.6,0,0.9,0c3.8,0.4,11.3,6.1,10.3,9.6c-1.1,4.4-13.1,8.8-18.1,8.8c-0.1,0-0.1,0-0.2,0
		c-4.2-0.1-13.7-4.5-13.1-8.3C204.2,272.4,217.4,267.2,223.5,267.2 M223.5,262.2c-6.7,0-23.6,5.5-25.1,14.3c-0.3,1.6-0.1,4.1,2,6.7
		c3.4,4.1,11.2,7.4,15.8,7.5c0.1,0,0.2,0,0.3,0c5.1,0,20.9-4.3,23-12.5c0.4-1.7,0.5-4.3-1.7-7.5c-2.9-4.1-8.7-7.9-12.9-8.3
		C224.5,262.2,224,262.2,223.5,262.2L223.5,262.2z"/>
</g>
<g>
	<path fill="#BAB4B1" d="M255.2,288.1c-5.1-0.6-11.1-2.7-13.9-4.8c-3.2-2.4-7.3-8.9-7.6-13.4c-0.2-2.4,0.7-3.9,1.5-4.7
		c1.5-1.5,3.9-2.2,7.2-2.2c6.5,0,15.7,2.9,19.2,6c1.4,1.3,2.8,3.5,3.7,6.2l0.5,1.4l-1,1.1c-2.7,2.9-5.1,6-7.1,9.2l-0.9,1.3
		L255.2,288.1z"/>
	<path fill="#423426" d="M242.3,265.4c6,0,14.6,2.8,17.6,5.4c1.1,1,2.3,3,3,5.2c-2.8,3-5.2,6.2-7.4,9.6c-4.8-0.6-10.4-2.6-12.8-4.3
		c-3.4-2.5-8.6-11.6-5.9-14.3C237.9,265.9,239.9,265.4,242.3,265.4 M242.3,260.4c-4,0-7,1-9,3c-1.1,1.1-2.4,3.2-2.2,6.6
		c0.4,5.4,4.9,12.5,8.6,15.2c3.2,2.4,9.5,4.6,15.1,5.3l3.1,0.4l1.7-2.7c2-3.1,4.3-6.1,6.9-8.9l2.1-2.2l-1-2.9
		c-0.6-1.8-2.1-5.2-4.4-7.2C259.1,263.5,249.4,260.4,242.3,260.4L242.3,260.4z"/>
</g>
<g>
	<path fill="#BAB4B1" d="M426.5,426.1c-0.8,0-1.6-0.2-2.3-0.6c-3.4-1.8-4.7-7.1-5.3-11.2c-0.6-4.7-0.5-11.5,1.1-15.1
		c1.7-3.8,8.3-8.7,13-8.7c1.1,0,2.2,0.3,3,0.8c4.9,3.1,4.9,14.5,4.5,18.6c-0.2,1.8-0.5,3.3-0.9,4.5
		C438.2,418.4,431.7,426.1,426.5,426.1C426.5,426.1,426.5,426.1,426.5,426.1z"/>
	<path fill="#423426" d="M433,392.9c0.6,0,1.2,0.1,1.7,0.4c3,2,3.9,10.5,3.4,16.3c-0.2,1.6-0.4,2.9-0.8,3.9
		c-1.3,3.5-7.1,10.1-10.8,10.1c-0.4,0-0.8-0.1-1.2-0.3c-2.1-1.1-3.4-5-3.9-9.3c-0.7-5.2-0.3-11,0.9-13.8
		C423.7,397.2,429.4,392.9,433,392.9 M433,387.9c-5.7,0-13.2,5.6-15.2,10.2c-1.9,4.1-2,11.2-1.3,16.5c0.9,6.9,3.1,11.3,6.6,13.1
		c1,0.6,2.2,0.8,3.5,0.8c6.6,0,13.8-8.7,15.5-13.4c0.5-1.4,0.8-3.1,1-5.1c0.1-0.7,1.5-16.3-5.6-20.9
		C436.1,388.3,434.7,387.9,433,387.9L433,387.9z"/>
</g>
<g>
	<path fill="#BAB4B1" d="M420.7,398.2c-7,0-16.4-13.8-17.3-19.9c-0.5-3.5,1.4-9.4,4.2-12.6c1.9-2.2,3.7-2.7,4.9-2.7
		c6.5,0,14.4,12.4,15.6,17.4c0.9,3.9-0.2,11.5-2.8,15.2c-1.4,2-3,2.5-4.1,2.6C421.1,398.2,420.9,398.2,420.7,398.2z"/>
	<path fill="#423426" d="M412.6,365.5c4.6,0,12,10.7,13.1,15.5c1,4.1-0.9,14.4-4.7,14.7c-0.1,0-0.2,0-0.3,0
		c-5.2,0-14-12.4-14.8-17.8C405.4,374.1,408.9,365.5,412.6,365.5C412.6,365.5,412.6,365.5,412.6,365.5 M412.6,360.5L412.6,360.5
		c-1.8,0-4.3,0.6-6.8,3.6c-3.3,3.8-5.4,10.4-4.8,14.6c0.9,6.2,10.6,22,19.7,22c0.2,0,0.5,0,0.7,0c1.6-0.1,3.9-0.9,5.9-3.6
		c3.2-4.4,4.3-12.7,3.2-17.2C429.5,375,421.3,360.5,412.6,360.5L412.6,360.5z"/>
</g>
<g>
	<path fill="#BAB4B1" d="M399.6,377.5c-6.7,0-17.3-4.9-20.6-8.6c-1.2-1.4-2-3.3-2.4-4.7c-1.1-3.7-2-10.6,1.9-13.1
		c1.1-0.7,2.5-1.1,4.3-1.1c3.1,0,7.5,1.2,11.9,3.3c1.6,0.8,4.6,2.3,6.4,4.1c2.8,2.8,6.1,9.8,5.8,14.3c-0.1,2.4-1.2,3.7-2.1,4.4
		C403.5,377,401.8,377.5,399.6,377.5L399.6,377.5z"/>
	<path fill="#423426" d="M382.7,352.4c3,0,7.3,1.4,10.8,3c2.4,1.2,4.6,2.5,5.7,3.6c3,2.9,7,12.6,4,15c-0.8,0.6-2.1,0.9-3.6,0.9
		c-6,0-15.8-4.4-18.7-7.8c-0.7-0.8-1.4-2.2-1.9-3.8c-1.2-3.8-1.4-8.8,0.8-10.3C380.5,352.6,381.5,352.4,382.7,352.4 M382.7,347.4
		c-2.2,0-4.1,0.5-5.6,1.5c-4.8,3.1-4.6,10.5-2.9,15.9c0.5,1.6,1.4,3.9,2.9,5.6c4.1,4.7,15.5,9.5,22.5,9.5c2.7,0,4.9-0.7,6.6-2
		c1.3-1,2.8-2.9,3-6.3c0.3-5.4-3.2-13-6.6-16.3c-2.1-2-5.3-3.7-7.1-4.5C393.4,349.9,387.7,347.4,382.7,347.4L382.7,347.4z"/>
</g>
<g>
	<path fill="#BAB4B1" d="M384.1,403.4c-6.3,0-15.2-11-16.9-15.4c-1.4-3.7-1.2-11.4,1-15.4c1.2-2.2,2.7-2.9,3.8-3.1
		c0.4-0.1,0.8-0.1,1.2-0.1c6.9,0,17.3,12.2,18.8,17.7c0.9,3.4-0.3,9.6-2.7,13.1c-1.6,2.4-3.4,3.1-4.5,3.2
		C384.5,403.4,384.3,403.4,384.1,403.4L384.1,403.4z"/>
	<path fill="#423426" d="M373.2,371.8c5.3,0,15,10.8,16.4,15.9c1,3.7-1.5,12.7-5.1,13.2c-0.1,0-0.3,0-0.4,0
		c-4.7,0-12.9-9.4-14.5-13.8c-1.5-3.9-0.9-14.4,2.9-15.2C372.7,371.9,372.9,371.8,373.2,371.8 M373.2,366.8c-0.6,0-1.2,0.1-1.8,0.2
		c-1.6,0.3-3.8,1.4-5.4,4.4c-2.6,4.7-2.7,13.1-1.1,17.5c1.9,5.1,11.3,17.1,19.2,17.1c0.3,0,0.7,0,1-0.1c1.7-0.2,4.2-1.1,6.3-4.3
		c2.8-4.2,4.2-11,3-15.1C392.6,380,381.6,366.8,373.2,366.8L373.2,366.8z"/>
</g>
<g>
	<path fill="#BAB4B1" d="M410.9,425.9c-6.4,0-17-11.9-18.9-16.5c-1.5-3.7-1.6-11.4,0.5-15.4c1.1-2.2,2.6-3,3.7-3.2
		c0.4-0.1,0.9-0.2,1.4-0.2c7,0,19.2,13.3,20.9,18.7c1.1,3.4,0,9.5-2.2,13.1c-1.5,2.5-3.3,3.2-4.4,3.4
		C411.5,425.9,411.2,425.9,410.9,425.9L410.9,425.9z"/>
	<path fill="#423426" d="M397.5,393.1c5.4,0,16.9,11.9,18.5,17c1.2,3.7-1,12.8-4.7,13.3c-0.1,0-0.3,0-0.4,0
		c-4.8,0-14.8-10.6-16.6-14.9c-1.6-3.9-1.4-14.3,2.4-15.3C397,393.1,397.2,393.1,397.5,393.1 M397.5,388.1c-0.7,0-1.3,0.1-2,0.2
		c-1.6,0.4-3.8,1.5-5.3,4.5c-2.4,4.8-2.3,13.2-0.5,17.5c2.2,5.3,13.4,18.1,21.2,18.1c0.4,0,0.8,0,1.2-0.1c1.7-0.3,4.2-1.3,6.2-4.6
		c2.7-4.3,3.8-11.1,2.5-15.2C418.8,402.1,405.9,388.1,397.5,388.1L397.5,388.1z"/>
</g>
<g>
	<path fill="#BAB4B1" d="M449.9,457.7c-6.1,0-15.2-9.6-17.3-14.6c-1.6-3.6-1.8-11.3,0.2-15.4c1.1-2.2,2.6-3,3.6-3.3
		c0.5-0.1,1-0.2,1.6-0.2c6.7,0,17.4,10.9,19.4,16.7c1.1,3.4,0.2,9.5-2,13.2c-1.5,2.5-3.2,3.3-4.4,3.5
		C450.6,457.6,450.2,457.7,449.9,457.7L449.9,457.7z"/>
	<path fill="#423426" d="M437.9,426.7c5.4,0,15.3,10.1,17,15c1.2,3.7-0.8,12.8-4.4,13.4c-0.2,0-0.4,0-0.6,0c-4.7,0-13.2-8.7-15-13.1
		c-1.6-3.9-1.6-14.3,2.1-15.3C437.3,426.7,437.6,426.7,437.9,426.7 M437.9,421.7c-0.8,0-1.5,0.1-2.2,0.3c-1.5,0.4-3.7,1.6-5.2,4.6
		c-2.3,4.8-2.1,13.2-0.2,17.5c2.1,4.8,11.9,16.1,19.6,16.1c0.5,0,1,0,1.5-0.1c1.7-0.3,4.1-1.3,6.1-4.6c2.6-4.3,3.6-11.2,2.2-15.3
		C457.6,434,446.3,421.7,437.9,421.7L437.9,421.7z"/>
</g>
<g>
	<path fill="#BAB4B1" d="M474.9,478.2c-6,0-15.3-9.5-17.4-14.4c-1.6-3.6-2-11.3,0-15.4c1-2.2,2.5-3,3.6-3.3c0.5-0.1,1.1-0.2,1.7-0.2
		c6.7,0,17.5,10.8,19.5,16.5c1.2,3.3,0.3,9.5-1.8,13.2c-1.4,2.5-3.2,3.3-4.3,3.5C475.6,478.2,475.3,478.2,474.9,478.2
		C474.9,478.2,474.9,478.2,474.9,478.2z"/>
	<path fill="#423426" d="M462.6,447.3c5.4,0,15.4,9.9,17.1,14.9c1.3,3.6-0.6,12.8-4.3,13.5c-0.2,0-0.4,0.1-0.6,0.1
		c-4.7,0-13.3-8.6-15.2-12.9c-1.7-3.8-1.8-14.3,1.9-15.4C462,447.4,462.3,447.3,462.6,447.3 M462.6,442.3c-0.8,0-1.6,0.1-2.3,0.3
		c-1.6,0.4-3.7,1.6-5.2,4.7c-2.3,4.9-1.9,13.3,0,17.5c2.1,4.7,12,15.9,19.7,15.9c0.5,0,1.1-0.1,1.6-0.1c1.7-0.3,4.1-1.4,6-4.7
		c2.5-4.4,3.4-11.2,2-15.3C482.4,454.6,471,442.3,462.6,442.3L462.6,442.3z"/>
</g>
<g>
	<path fill="#BAB4B1" d="M500,498.6c-6,0-15.3-9.5-17.4-14.4c-1.6-3.6-2-11.3,0-15.4c1-2.2,2.5-3,3.6-3.3c0.5-0.1,1.1-0.2,1.7-0.2
		c6.7,0,17.5,10.7,19.5,16.5c1.2,3.3,0.3,9.5-1.8,13.2c-1.5,2.5-3.2,3.3-4.3,3.5C500.7,498.5,500.3,498.6,500,498.6z"/>
	<path fill="#423426" d="M487.7,467.7c5.4,0,15.4,9.9,17.1,14.8c1.3,3.6-0.6,12.8-4.3,13.5c-0.2,0-0.4,0.1-0.6,0.1
		c-4.7,0-13.3-8.6-15.2-12.9c-1.7-3.8-1.8-14.3,1.9-15.4C487,467.8,487.4,467.7,487.7,467.7 M487.7,462.7c-0.8,0-1.6,0.1-2.3,0.3
		c-1.6,0.4-3.7,1.6-5.2,4.7c-2.3,4.9-1.9,13.3,0,17.5c2.1,4.7,12,15.9,19.7,15.9c0.5,0,1.1,0,1.6-0.1c1.7-0.3,4.1-1.4,6-4.8
		c2.5-4.4,3.4-11.2,2-15.3C507.5,474.9,496.1,462.7,487.7,462.7L487.7,462.7z"/>
</g>
</svg>
